<?xml version='1.0' encoding='UTF-8' standalone='no'?>
<svg xmlns:xlink="http://www.w3.org/1999/xlink" height="314pt" xmlns="http://www.w3.org/2000/svg" viewBox="0 0 418 314" width="418pt">
 <title>Figure 1</title>
 <desc>
Creator: GL2PS 1.4.2, (C) 1999-2020 C. Geuzaine
For: Octave
CreationDate: Thu Feb 23 11:17:55 2023
</desc>
 <defs/>
 <polygon points="0,0 418,0 418,314 0,314" fill="#ffffff"/>
 <g>
  <polygon points="0,314 418,314 418,0 0,0" shape-rendering="crispEdges" fill="#ffffff"/>
  <clipPath id="cp00418314">
   <polygon points="0,314 418,314 418,0 0,0"/>
  </clipPath>
  <g clip-path="url(#cp00418314)">
   <polygon points="54.4343,279.499 378.946,279.499 378.946,23.5533 54.4343,23.5533" shape-rendering="crispEdges" fill="#ffffff"/>
   <polyline stroke-linecap="butt" points="86.9969,279.499 86.9969,277.877" stroke-width="0.5" fill="none" stroke="#262626" stroke-linejoin="miter"/>
   <polyline stroke-linecap="butt" points="86.9969,23.5533 86.9969,25.1755" stroke-width="0.5" fill="none" stroke="#262626" stroke-linejoin="miter"/>
   <polyline stroke-linecap="butt" points="106.045,279.499 106.045,277.877" stroke-width="0.5" fill="none" stroke="#262626" stroke-linejoin="miter"/>
   <polyline stroke-linecap="butt" points="106.045,23.5533 106.045,25.1755" stroke-width="0.5" fill="none" stroke="#262626" stroke-linejoin="miter"/>
   <polyline stroke-linecap="butt" points="119.56,279.499 119.56,277.877" stroke-width="0.5" fill="none" stroke="#262626" stroke-linejoin="miter"/>
   <polyline stroke-linecap="butt" points="119.56,23.5533 119.56,25.1755" stroke-width="0.5" fill="none" stroke="#262626" stroke-linejoin="miter"/>
   <polyline stroke-linecap="butt" points="130.042,279.499 130.042,277.877" stroke-width="0.5" fill="none" stroke="#262626" stroke-linejoin="miter"/>
   <polyline stroke-linecap="butt" points="130.042,23.5533 130.042,25.1755" stroke-width="0.5" fill="none" stroke="#262626" stroke-linejoin="miter"/>
   <polyline stroke-linecap="butt" points="138.607,279.499 138.607,277.877" stroke-width="0.5" fill="none" stroke="#262626" stroke-linejoin="miter"/>
   <polyline stroke-linecap="butt" points="138.607,23.5533 138.607,25.1755" stroke-width="0.5" fill="none" stroke="#262626" stroke-linejoin="miter"/>
   <polyline stroke-linecap="butt" points="145.849,279.499 145.849,277.877" stroke-width="0.5" fill="none" stroke="#262626" stroke-linejoin="miter"/>
   <polyline stroke-linecap="butt" points="145.849,23.5533 145.849,25.1755" stroke-width="0.5" fill="none" stroke="#262626" stroke-linejoin="miter"/>
   <polyline stroke-linecap="butt" points="152.122,279.499 152.122,277.877" stroke-width="0.5" fill="none" stroke="#262626" stroke-linejoin="miter"/>
   <polyline stroke-linecap="butt" points="152.122,23.5533 152.122,25.1755" stroke-width="0.5" fill="none" stroke="#262626" stroke-linejoin="miter"/>
   <polyline stroke-linecap="butt" points="157.655,279.499 157.655,277.877" stroke-width="0.5" fill="none" stroke="#262626" stroke-linejoin="miter"/>
   <polyline stroke-linecap="butt" points="157.655,23.5533 157.655,25.1755" stroke-width="0.5" fill="none" stroke="#262626" stroke-linejoin="miter"/>
   <polyline stroke-linecap="butt" points="195.168,279.499 195.168,277.877" stroke-width="0.5" fill="none" stroke="#262626" stroke-linejoin="miter"/>
   <polyline stroke-linecap="butt" points="195.168,23.5533 195.168,25.1755" stroke-width="0.5" fill="none" stroke="#262626" stroke-linejoin="miter"/>
   <polyline stroke-linecap="butt" points="214.216,279.499 214.216,277.877" stroke-width="0.5" fill="none" stroke="#262626" stroke-linejoin="miter"/>
   <polyline stroke-linecap="butt" points="214.216,23.5533 214.216,25.1755" stroke-width="0.5" fill="none" stroke="#262626" stroke-linejoin="miter"/>
   <polyline stroke-linecap="butt" points="227.73,279.499 227.73,277.877" stroke-width="0.5" fill="none" stroke="#262626" stroke-linejoin="miter"/>
   <polyline stroke-linecap="butt" points="227.73,23.5533 227.73,25.1755" stroke-width="0.5" fill="none" stroke="#262626" stroke-linejoin="miter"/>
   <polyline stroke-linecap="butt" points="238.213,279.499 238.213,277.877" stroke-width="0.5" fill="none" stroke="#262626" stroke-linejoin="miter"/>
   <polyline stroke-linecap="butt" points="238.213,23.5533 238.213,25.1755" stroke-width="0.5" fill="none" stroke="#262626" stroke-linejoin="miter"/>
   <polyline stroke-linecap="butt" points="246.778,279.499 246.778,277.877" stroke-width="0.5" fill="none" stroke="#262626" stroke-linejoin="miter"/>
   <polyline stroke-linecap="butt" points="246.778,23.5533 246.778,25.1755" stroke-width="0.5" fill="none" stroke="#262626" stroke-linejoin="miter"/>
   <polyline stroke-linecap="butt" points="254.02,279.499 254.02,277.877" stroke-width="0.5" fill="none" stroke="#262626" stroke-linejoin="miter"/>
   <polyline stroke-linecap="butt" points="254.02,23.5533 254.02,25.1755" stroke-width="0.5" fill="none" stroke="#262626" stroke-linejoin="miter"/>
   <polyline stroke-linecap="butt" points="260.293,279.499 260.293,277.877" stroke-width="0.5" fill="none" stroke="#262626" stroke-linejoin="miter"/>
   <polyline stroke-linecap="butt" points="260.293,23.5533 260.293,25.1755" stroke-width="0.5" fill="none" stroke="#262626" stroke-linejoin="miter"/>
   <polyline stroke-linecap="butt" points="265.826,279.499 265.826,277.877" stroke-width="0.5" fill="none" stroke="#262626" stroke-linejoin="miter"/>
   <polyline stroke-linecap="butt" points="265.826,23.5533 265.826,25.1755" stroke-width="0.5" fill="none" stroke="#262626" stroke-linejoin="miter"/>
   <polyline stroke-linecap="butt" points="303.338,279.499 303.338,277.877" stroke-width="0.5" fill="none" stroke="#262626" stroke-linejoin="miter"/>
   <polyline stroke-linecap="butt" points="303.338,23.5533 303.338,25.1755" stroke-width="0.5" fill="none" stroke="#262626" stroke-linejoin="miter"/>
   <polyline stroke-linecap="butt" points="322.386,279.499 322.386,277.877" stroke-width="0.5" fill="none" stroke="#262626" stroke-linejoin="miter"/>
   <polyline stroke-linecap="butt" points="322.386,23.5533 322.386,25.1755" stroke-width="0.5" fill="none" stroke="#262626" stroke-linejoin="miter"/>
   <polyline stroke-linecap="butt" points="335.901,279.499 335.901,277.877" stroke-width="0.5" fill="none" stroke="#262626" stroke-linejoin="miter"/>
   <polyline stroke-linecap="butt" points="335.901,23.5533 335.901,25.1755" stroke-width="0.5" fill="none" stroke="#262626" stroke-linejoin="miter"/>
   <polyline stroke-linecap="butt" points="346.384,279.499 346.384,277.877" stroke-width="0.5" fill="none" stroke="#262626" stroke-linejoin="miter"/>
   <polyline stroke-linecap="butt" points="346.384,23.5533 346.384,25.1755" stroke-width="0.5" fill="none" stroke="#262626" stroke-linejoin="miter"/>
   <polyline stroke-linecap="butt" points="354.949,279.499 354.949,277.877" stroke-width="0.5" fill="none" stroke="#262626" stroke-linejoin="miter"/>
   <polyline stroke-linecap="butt" points="354.949,23.5533 354.949,25.1755" stroke-width="0.5" fill="none" stroke="#262626" stroke-linejoin="miter"/>
   <polyline stroke-linecap="butt" points="362.191,279.499 362.191,277.877" stroke-width="0.5" fill="none" stroke="#262626" stroke-linejoin="miter"/>
   <polyline stroke-linecap="butt" points="362.191,23.5533 362.191,25.1755" stroke-width="0.5" fill="none" stroke="#262626" stroke-linejoin="miter"/>
   <polyline stroke-linecap="butt" points="368.464,279.499 368.464,277.877" stroke-width="0.5" fill="none" stroke="#262626" stroke-linejoin="miter"/>
   <polyline stroke-linecap="butt" points="368.464,23.5533 368.464,25.1755" stroke-width="0.5" fill="none" stroke="#262626" stroke-linejoin="miter"/>
   <polyline stroke-linecap="butt" points="373.997,279.499 373.997,277.877" stroke-width="0.5" fill="none" stroke="#262626" stroke-linejoin="miter"/>
   <polyline stroke-linecap="butt" points="373.997,23.5533 373.997,25.1755" stroke-width="0.5" fill="none" stroke="#262626" stroke-linejoin="miter"/>
   <polyline stroke-linecap="butt" points="54.4343,279.499 54.4343,276.255" stroke-width="0.5" fill="none" stroke="#262626" stroke-linejoin="miter"/>
   <polyline stroke-linecap="butt" points="54.4343,23.5533 54.4343,26.7977" stroke-width="0.5" fill="none" stroke="#262626" stroke-linejoin="miter"/>
   <polyline stroke-linecap="butt" points="162.605,279.499 162.605,276.255" stroke-width="0.5" fill="none" stroke="#262626" stroke-linejoin="miter"/>
   <polyline stroke-linecap="butt" points="162.605,23.5533 162.605,26.7977" stroke-width="0.5" fill="none" stroke="#262626" stroke-linejoin="miter"/>
   <polyline stroke-linecap="butt" points="270.776,279.499 270.776,276.255" stroke-width="0.5" fill="none" stroke="#262626" stroke-linejoin="miter"/>
   <polyline stroke-linecap="butt" points="270.776,23.5533 270.776,26.7977" stroke-width="0.5" fill="none" stroke="#262626" stroke-linejoin="miter"/>
   <polyline stroke-linecap="butt" points="378.946,279.499 378.946,276.255" stroke-width="0.5" fill="none" stroke="#262626" stroke-linejoin="miter"/>
   <polyline stroke-linecap="butt" points="378.946,23.5533 378.946,26.7977" stroke-width="0.5" fill="none" stroke="#262626" stroke-linejoin="miter"/>
   <g font-weight="normal" font-family="FreeSans" xml:space="preserve" transform="translate(46.4343,296.998) rotate(-0,8,-10)" font-style="normal" font-size="10">
    <text x="0 6 " y="-0" fill="rgb(38,38,38)">10</text>
    <text x="12 " y="-4" font-size="7" fill="rgb(38,38,38)">2</text>
   </g>
   <g font-weight="normal" font-family="FreeSans" xml:space="preserve" transform="translate(154.605,296.998) rotate(-0,8,-10)" font-style="normal" font-size="10">
    <text x="0 6 " y="-0" fill="rgb(38,38,38)">10</text>
    <text x="12 " y="-4" font-size="7" fill="rgb(38,38,38)">3</text>
   </g>
   <g font-weight="normal" font-family="FreeSans" xml:space="preserve" transform="translate(262.776,296.998) rotate(-0,8,-10)" font-style="normal" font-size="10">
    <text x="0 6 " y="-0" fill="rgb(38,38,38)">10</text>
    <text x="12 " y="-4" font-size="7" fill="rgb(38,38,38)">4</text>
   </g>
   <g font-weight="normal" font-family="FreeSans" xml:space="preserve" transform="translate(370.946,296.998) rotate(-0,8,-10)" font-style="normal" font-size="10">
    <text x="0 6 " y="-0" fill="rgb(38,38,38)">10</text>
    <text x="12 " y="-4" font-size="7" fill="rgb(38,38,38)">5</text>
   </g>
   <polyline stroke-linecap="butt" points="54.4343,240.975 56.0544,240.975" stroke-width="0.5" fill="none" stroke="#262626" stroke-linejoin="miter"/>
   <polyline stroke-linecap="butt" points="378.946,240.975 377.326,240.975" stroke-width="0.5" fill="none" stroke="#262626" stroke-linejoin="miter"/>
   <polyline stroke-linecap="butt" points="54.4343,218.441 56.0544,218.441" stroke-width="0.5" fill="none" stroke="#262626" stroke-linejoin="miter"/>
   <polyline stroke-linecap="butt" points="378.946,218.441 377.326,218.441" stroke-width="0.5" fill="none" stroke="#262626" stroke-linejoin="miter"/>
   <polyline stroke-linecap="butt" points="54.4343,202.452 56.0544,202.452" stroke-width="0.5" fill="none" stroke="#262626" stroke-linejoin="miter"/>
   <polyline stroke-linecap="butt" points="378.946,202.452 377.326,202.452" stroke-width="0.5" fill="none" stroke="#262626" stroke-linejoin="miter"/>
   <polyline stroke-linecap="butt" points="54.4343,190.05 56.0544,190.05" stroke-width="0.5" fill="none" stroke="#262626" stroke-linejoin="miter"/>
   <polyline stroke-linecap="butt" points="378.946,190.05 377.326,190.05" stroke-width="0.5" fill="none" stroke="#262626" stroke-linejoin="miter"/>
   <polyline stroke-linecap="butt" points="54.4343,179.917 56.0544,179.917" stroke-width="0.5" fill="none" stroke="#262626" stroke-linejoin="miter"/>
   <polyline stroke-linecap="butt" points="378.946,179.917 377.326,179.917" stroke-width="0.5" fill="none" stroke="#262626" stroke-linejoin="miter"/>
   <polyline stroke-linecap="butt" points="54.4343,171.349 56.0544,171.349" stroke-width="0.5" fill="none" stroke="#262626" stroke-linejoin="miter"/>
   <polyline stroke-linecap="butt" points="378.946,171.349 377.326,171.349" stroke-width="0.5" fill="none" stroke="#262626" stroke-linejoin="miter"/>
   <polyline stroke-linecap="butt" points="54.4343,163.928 56.0544,163.928" stroke-width="0.5" fill="none" stroke="#262626" stroke-linejoin="miter"/>
   <polyline stroke-linecap="butt" points="378.946,163.928 377.326,163.928" stroke-width="0.5" fill="none" stroke="#262626" stroke-linejoin="miter"/>
   <polyline stroke-linecap="butt" points="54.4343,157.382 56.0544,157.382" stroke-width="0.5" fill="none" stroke="#262626" stroke-linejoin="miter"/>
   <polyline stroke-linecap="butt" points="378.946,157.382 377.326,157.382" stroke-width="0.5" fill="none" stroke="#262626" stroke-linejoin="miter"/>
   <polyline stroke-linecap="butt" points="54.4343,113.003 56.0544,113.003" stroke-width="0.5" fill="none" stroke="#262626" stroke-linejoin="miter"/>
   <polyline stroke-linecap="butt" points="378.946,113.003 377.326,113.003" stroke-width="0.5" fill="none" stroke="#262626" stroke-linejoin="miter"/>
   <polyline stroke-linecap="butt" points="54.4343,90.4676 56.0544,90.4676" stroke-width="0.5" fill="none" stroke="#262626" stroke-linejoin="miter"/>
   <polyline stroke-linecap="butt" points="378.946,90.4676 377.326,90.4676" stroke-width="0.5" fill="none" stroke="#262626" stroke-linejoin="miter"/>
   <polyline stroke-linecap="butt" points="54.4343,74.4788 56.0544,74.4788" stroke-width="0.5" fill="none" stroke="#262626" stroke-linejoin="miter"/>
   <polyline stroke-linecap="butt" points="378.946,74.4788 377.326,74.4788" stroke-width="0.5" fill="none" stroke="#262626" stroke-linejoin="miter"/>
   <polyline stroke-linecap="butt" points="54.4343,62.077 56.0544,62.077" stroke-width="0.5" fill="none" stroke="#262626" stroke-linejoin="miter"/>
   <polyline stroke-linecap="butt" points="378.946,62.077 377.326,62.077" stroke-width="0.5" fill="none" stroke="#262626" stroke-linejoin="miter"/>
   <polyline stroke-linecap="butt" points="54.4343,51.9439 56.0544,51.9439" stroke-width="0.5" fill="none" stroke="#262626" stroke-linejoin="miter"/>
   <polyline stroke-linecap="butt" points="378.946,51.9439 377.326,51.9439" stroke-width="0.5" fill="none" stroke="#262626" stroke-linejoin="miter"/>
   <polyline stroke-linecap="butt" points="54.4343,43.3766 56.0544,43.3766" stroke-width="0.5" fill="none" stroke="#262626" stroke-linejoin="miter"/>
   <polyline stroke-linecap="butt" points="378.946,43.3766 377.326,43.3766" stroke-width="0.5" fill="none" stroke="#262626" stroke-linejoin="miter"/>
   <polyline stroke-linecap="butt" points="54.4343,35.9552 56.0544,35.9552" stroke-width="0.5" fill="none" stroke="#262626" stroke-linejoin="miter"/>
   <polyline stroke-linecap="butt" points="378.946,35.9552 377.326,35.9552" stroke-width="0.5" fill="none" stroke="#262626" stroke-linejoin="miter"/>
   <polyline stroke-linecap="butt" points="54.4343,29.409 56.0544,29.409" stroke-width="0.5" fill="none" stroke="#262626" stroke-linejoin="miter"/>
   <polyline stroke-linecap="butt" points="378.946,29.409 377.326,29.409" stroke-width="0.5" fill="none" stroke="#262626" stroke-linejoin="miter"/>
   <polyline stroke-linecap="butt" points="54.4343,279.499 57.6745,279.499" stroke-width="0.5" fill="none" stroke="#262626" stroke-linejoin="miter"/>
   <polyline stroke-linecap="butt" points="378.946,279.499 375.706,279.499" stroke-width="0.5" fill="none" stroke="#262626" stroke-linejoin="miter"/>
   <polyline stroke-linecap="butt" points="54.4343,151.526 57.6745,151.526" stroke-width="0.5" fill="none" stroke="#262626" stroke-linejoin="miter"/>
   <polyline stroke-linecap="butt" points="378.946,151.526 375.706,151.526" stroke-width="0.5" fill="none" stroke="#262626" stroke-linejoin="miter"/>
   <polyline stroke-linecap="butt" points="54.4343,23.5533 57.6745,23.5533" stroke-width="0.5" fill="none" stroke="#262626" stroke-linejoin="miter"/>
   <polyline stroke-linecap="butt" points="378.946,23.5533 375.706,23.5533" stroke-width="0.5" fill="none" stroke="#262626" stroke-linejoin="miter"/>
   <g font-weight="normal" font-family="FreeSans" xml:space="preserve" transform="translate(31.4418,284.499) rotate(-0,18,-5)" font-style="normal" font-size="10">
    <text x="0 6 " y="-0" fill="rgb(38,38,38)">10</text>
    <text x="12 14 " y="-4" font-size="7" fill="rgb(38,38,38)">-1</text>
   </g>
   <g font-weight="normal" font-family="FreeSans" xml:space="preserve" transform="translate(33.4418,156.526) rotate(-0,16,-5)" font-style="normal" font-size="10">
    <text x="0 6 " y="-0" fill="rgb(38,38,38)">10</text>
    <text x="12 " y="-4" font-size="7" fill="rgb(38,38,38)">0</text>
   </g>
   <g font-weight="normal" font-family="FreeSans" xml:space="preserve" transform="translate(33.4418,28.5533) rotate(-0,16,-5)" font-style="normal" font-size="10">
    <text x="0 6 " y="-0" fill="rgb(38,38,38)">10</text>
    <text x="12 " y="-4" font-size="7" fill="rgb(38,38,38)">1</text>
   </g>
   <polyline stroke-linecap="square" points="54.4343,279.499 378.946,279.499" stroke-width="0.5" stroke-dasharray="16,0" fill="none" stroke="#262626" stroke-linejoin="miter"/>
   <polyline stroke-linecap="square" points="54.4343,23.5533 378.946,23.5533" stroke-width="0.5" stroke-dasharray="16,0" fill="none" stroke="#262626" stroke-linejoin="miter"/>
   <polyline stroke-linecap="square" points="54.4343,279.499 54.4343,23.5533" stroke-width="0.5" stroke-dasharray="16,0" fill="none" stroke="#262626" stroke-linejoin="miter"/>
   <polyline stroke-linecap="square" points="378.946,279.499 378.946,23.5533" stroke-width="0.5" stroke-dasharray="16,0" fill="none" stroke="#262626" stroke-linejoin="miter"/>
   <g font-weight="normal" font-family="'Noto Sans'" xml:space="preserve" transform="translate(140.69,313.998) rotate(-0,76,-12)" font-style="normal" font-size="11">
    <text x="0 8 15 26 33 40 45 48 55 59 62 68 75 81 87 90 93 100 106 113 118 122 129 136 140 148 " y="-3" fill="rgb(38,38,38)">Number of keys inserted(N)</text>
   </g>
   <g font-weight="normal" font-family="'Noto Sans'" xml:space="preserve" transform="translate(-55.5582,151.526) rotate(-90,82,0)" font-style="normal" font-size="11">
    <text x="0 7 13 20 25 32 39 46 49 56 62 69 75 82 86 89 96 103 106 110 113 124 131 135 142 148 152 156 " y="-3" fill="rgb(38,38,38)">Average execution time(us)/N</text>
   </g>
   <g font-weight="normal" font-family="'Noto Sans'" xml:space="preserve" transform="translate(56.1904,13.5533) rotate(-0,160.5,0)" font-style="normal" font-size="11">
    <text x="0 7 13 20 25 32 39 46 49 56 62 69 75 82 86 89 96 103 106 110 113 124 131 135 142 148 152 155 162 169 174 185 192 195 198 204 211 218 221 225 232 235 242 249 260 267 274 279 282 289 293 296 302 309 315 " y="-3" fill="rgb(0,0,0)">Average execution time(us) normalised to number of keys</text>
   </g>
   <polyline stroke-linecap="butt" points="54.4343,235.678 86.9969,233.208 130.042,227.691 162.605,222.673 195.168,218.163 238.213,208.123 270.776,201.734 303.338,194.944 346.384,188.056 378.946,177.261 379.271,177.056" stroke-width="0.5" fill="none" stroke="#0071bc" stroke-linejoin="round"/>
   <polyline stroke-linecap="butt" points="54.4343,243.826 86.9969,243.826 130.042,241.534 162.605,238.529 195.168,232.967 238.213,226.18 270.776,220.286 303.338,215.036 346.384,208.748 378.946,198.074 379.271,197.867" stroke-width="0.5" fill="none" stroke="#d85218" stroke-linejoin="round"/>
   <polyline stroke-linecap="butt" points="54.4343,230.842 86.9969,221.291 130.042,203.01 162.605,179.824 195.168,150.1 238.213,82.7096 270.776,28.2975 273.83,23.2974" stroke-width="0.5" fill="none" stroke="#ecb01f" stroke-linejoin="round"/>
   <polyline stroke-linecap="butt" points="54.4343,198.432 86.9969,193.489 130.042,183.95 162.605,178.635 195.168,174.452 238.213,169.292 270.776,165.478 303.338,162.532 346.384,157.554 378.946,150.179 379.271,150.08" stroke-width="0.5" fill="none" stroke="#7d2e8d" stroke-linejoin="round"/>
   <polyline stroke-linecap="butt" points="54.4343,246.831 86.9969,243.826 130.042,239.875 162.605,235.678 195.168,230.266 238.213,219.981 270.776,210.721 303.338,202.786 346.384,195.414 378.946,189.043 379.271,188.788" stroke-width="0.5" fill="none" stroke="#76ab2f" stroke-linejoin="round"/>
   <polyline stroke-linecap="butt" points="54.4343,243.826 86.9969,233.208 130.042,211.158 162.605,171.988 195.168,130.322 238.213,62.5436 259.722,23.2974" stroke-width="0.5" fill="none" stroke="#4cbded" stroke-linejoin="round"/>
  </g>
  <clipPath id="cp00418314">
   <polygon points="0,314 418,314 418,0 0,0"/>
  </clipPath>
  <g clip-path="url(#cp00418314)">
   <polyline stroke-linecap="butt" points="66.4395,39.7604 86.4483,39.7604" stroke-width="0.5" fill="none" stroke="#0071bc" stroke-linejoin="round"/>
   <g font-weight="normal" font-family="'Noto Sans'" xml:space="preserve" transform="translate(90.4501,43.7604) rotate(-0,-0,-4)" font-style="normal" font-size="9">
    <text x="0 5 10 15 19 24 " y="-0" fill="rgb(0,0,0)">bsTree</text>
   </g>
   <polyline stroke-linecap="butt" points="66.4395,52.1658 86.4483,52.1658" stroke-width="0.5" fill="none" stroke="#d85218" stroke-linejoin="round"/>
   <g font-weight="normal" font-family="'Noto Sans'" xml:space="preserve" transform="translate(90.4501,56.1658) rotate(-0,-0,-4)" font-style="normal" font-size="9">
    <text x="0 4 9 14 19 22 27 31 36 41 45 50 " y="-0" fill="rgb(0,0,0)">redblackTree</text>
   </g>
   <polyline stroke-linecap="butt" points="66.4395,65.3694 86.4483,65.3694" stroke-width="0.5" fill="none" stroke="#ecb01f" stroke-linejoin="round"/>
   <g font-weight="normal" font-family="'Noto Sans'" xml:space="preserve" transform="translate(90.4501,70.3694) rotate(-0,-0,-5)" font-style="normal" font-size="9">
    <text x="0 5 10 15 19 24 " y="-2" fill="rgb(0,0,0)">sgTree</text>
   </g>
   <polyline stroke-linecap="butt" points="66.4395,79.3712 86.4483,79.3712" stroke-width="0.5" fill="none" stroke="#7d2e8d" stroke-linejoin="round"/>
   <g font-weight="normal" font-family="'Noto Sans'" xml:space="preserve" transform="translate(90.4501,84.3712) rotate(-0,-0,-5)" font-style="normal" font-size="9">
    <text x="0 5 10 13 18 23 26 31 " y="-2" fill="rgb(0,0,0)">skipList</text>
   </g>
   <polyline stroke-linecap="butt" points="66.4395,93.3729 86.4483,93.3729" stroke-width="0.5" fill="none" stroke="#76ab2f" stroke-linejoin="round"/>
   <g font-weight="normal" font-family="'Noto Sans'" xml:space="preserve" transform="translate(90.4501,98.3729) rotate(-0,-0,-5)" font-style="normal" font-size="9">
    <text x="0 5 10 13 18 23 28 32 37 " y="-2" fill="rgb(0,0,0)">splayTree</text>
   </g>
   <polyline stroke-linecap="butt" points="66.4395,106.577 86.4483,106.577" stroke-width="0.5" fill="none" stroke="#4cbded" stroke-linejoin="round"/>
   <g font-weight="normal" font-family="'Noto Sans'" xml:space="preserve" transform="translate(90.4501,110.577) rotate(-0,-0,-4)" font-style="normal" font-size="9">
    <text x="0 5 12 17 21 26 " y="-0" fill="rgb(0,0,0)">swTree</text>
   </g>
  </g>
 </g>
</svg>
