<?xml version='1.0' encoding='UTF-8' standalone='no'?>
<svg width="419pt" xmlns="http://www.w3.org/2000/svg" xmlns:xlink="http://www.w3.org/1999/xlink" height="314pt" viewBox="0 0 419 314">
 <title>Figure 1</title>
 <desc>
Creator: GL2PS 1.4.2, (C) 1999-2020 C. Geuzaine
For: Octave
CreationDate: Thu Feb 23 11:16:00 2023
</desc>
 <defs/>
 <polygon points="0,0 419,0 419,314 0,314" fill="#ffffff"/>
 <g>
  <polygon shape-rendering="crispEdges" points="0,314 419,314 419,0 0,0" fill="#ffffff"/>
  <clipPath id="cp00419314">
   <polygon points="0,314 419,314 419,0 0,0"/>
  </clipPath>
  <g clip-path="url(#cp00419314)">
   <polygon shape-rendering="crispEdges" points="54.5761,280.227 379.934,280.227 379.934,23.6146 54.5761,23.6146" fill="#ffffff"/>
   <polyline stroke-linejoin="miter" points="74.1646,280.227 74.1646,278.603" stroke="#262626" fill="none" stroke-width="0.5" stroke-linecap="butt"/>
   <polyline stroke-linejoin="miter" points="74.1646,23.6146 74.1646,25.239" stroke="#262626" fill="none" stroke-width="0.5" stroke-linecap="butt"/>
   <polyline stroke-linejoin="miter" points="85.6231,280.227 85.6231,278.603" stroke="#262626" fill="none" stroke-width="0.5" stroke-linecap="butt"/>
   <polyline stroke-linejoin="miter" points="85.6231,23.6146 85.6231,25.239" stroke="#262626" fill="none" stroke-width="0.5" stroke-linecap="butt"/>
   <polyline stroke-linejoin="miter" points="93.7531,280.227 93.7531,278.603" stroke="#262626" fill="none" stroke-width="0.5" stroke-linecap="butt"/>
   <polyline stroke-linejoin="miter" points="93.7531,23.6146 93.7531,25.239" stroke="#262626" fill="none" stroke-width="0.5" stroke-linecap="butt"/>
   <polyline stroke-linejoin="miter" points="100.059,280.227 100.059,278.603" stroke="#262626" fill="none" stroke-width="0.5" stroke-linecap="butt"/>
   <polyline stroke-linejoin="miter" points="100.059,23.6146 100.059,25.239" stroke="#262626" fill="none" stroke-width="0.5" stroke-linecap="butt"/>
   <polyline stroke-linejoin="miter" points="105.212,280.227 105.212,278.603" stroke="#262626" fill="none" stroke-width="0.5" stroke-linecap="butt"/>
   <polyline stroke-linejoin="miter" points="105.212,23.6146 105.212,25.239" stroke="#262626" fill="none" stroke-width="0.5" stroke-linecap="butt"/>
   <polyline stroke-linejoin="miter" points="109.568,280.227 109.568,278.603" stroke="#262626" fill="none" stroke-width="0.5" stroke-linecap="butt"/>
   <polyline stroke-linejoin="miter" points="109.568,23.6146 109.568,25.239" stroke="#262626" fill="none" stroke-width="0.5" stroke-linecap="butt"/>
   <polyline stroke-linejoin="miter" points="113.342,280.227 113.342,278.603" stroke="#262626" fill="none" stroke-width="0.5" stroke-linecap="butt"/>
   <polyline stroke-linejoin="miter" points="113.342,23.6146 113.342,25.239" stroke="#262626" fill="none" stroke-width="0.5" stroke-linecap="butt"/>
   <polyline stroke-linejoin="miter" points="116.67,280.227 116.67,278.603" stroke="#262626" fill="none" stroke-width="0.5" stroke-linecap="butt"/>
   <polyline stroke-linejoin="miter" points="116.67,23.6146 116.67,25.239" stroke="#262626" fill="none" stroke-width="0.5" stroke-linecap="butt"/>
   <polyline stroke-linejoin="miter" points="139.236,280.227 139.236,278.603" stroke="#262626" fill="none" stroke-width="0.5" stroke-linecap="butt"/>
   <polyline stroke-linejoin="miter" points="139.236,23.6146 139.236,25.239" stroke="#262626" fill="none" stroke-width="0.5" stroke-linecap="butt"/>
   <polyline stroke-linejoin="miter" points="150.695,280.227 150.695,278.603" stroke="#262626" fill="none" stroke-width="0.5" stroke-linecap="butt"/>
   <polyline stroke-linejoin="miter" points="150.695,23.6146 150.695,25.239" stroke="#262626" fill="none" stroke-width="0.5" stroke-linecap="butt"/>
   <polyline stroke-linejoin="miter" points="158.825,280.227 158.825,278.603" stroke="#262626" fill="none" stroke-width="0.5" stroke-linecap="butt"/>
   <polyline stroke-linejoin="miter" points="158.825,23.6146 158.825,25.239" stroke="#262626" fill="none" stroke-width="0.5" stroke-linecap="butt"/>
   <polyline stroke-linejoin="miter" points="165.131,280.227 165.131,278.603" stroke="#262626" fill="none" stroke-width="0.5" stroke-linecap="butt"/>
   <polyline stroke-linejoin="miter" points="165.131,23.6146 165.131,25.239" stroke="#262626" fill="none" stroke-width="0.5" stroke-linecap="butt"/>
   <polyline stroke-linejoin="miter" points="170.283,280.227 170.283,278.603" stroke="#262626" fill="none" stroke-width="0.5" stroke-linecap="butt"/>
   <polyline stroke-linejoin="miter" points="170.283,23.6146 170.283,25.239" stroke="#262626" fill="none" stroke-width="0.5" stroke-linecap="butt"/>
   <polyline stroke-linejoin="miter" points="174.639,280.227 174.639,278.603" stroke="#262626" fill="none" stroke-width="0.5" stroke-linecap="butt"/>
   <polyline stroke-linejoin="miter" points="174.639,23.6146 174.639,25.239" stroke="#262626" fill="none" stroke-width="0.5" stroke-linecap="butt"/>
   <polyline stroke-linejoin="miter" points="178.413,280.227 178.413,278.603" stroke="#262626" fill="none" stroke-width="0.5" stroke-linecap="butt"/>
   <polyline stroke-linejoin="miter" points="178.413,23.6146 178.413,25.239" stroke="#262626" fill="none" stroke-width="0.5" stroke-linecap="butt"/>
   <polyline stroke-linejoin="miter" points="181.742,280.227 181.742,278.603" stroke="#262626" fill="none" stroke-width="0.5" stroke-linecap="butt"/>
   <polyline stroke-linejoin="miter" points="181.742,23.6146 181.742,25.239" stroke="#262626" fill="none" stroke-width="0.5" stroke-linecap="butt"/>
   <polyline stroke-linejoin="miter" points="204.308,280.227 204.308,278.603" stroke="#262626" fill="none" stroke-width="0.5" stroke-linecap="butt"/>
   <polyline stroke-linejoin="miter" points="204.308,23.6146 204.308,25.239" stroke="#262626" fill="none" stroke-width="0.5" stroke-linecap="butt"/>
   <polyline stroke-linejoin="miter" points="215.766,280.227 215.766,278.603" stroke="#262626" fill="none" stroke-width="0.5" stroke-linecap="butt"/>
   <polyline stroke-linejoin="miter" points="215.766,23.6146 215.766,25.239" stroke="#262626" fill="none" stroke-width="0.5" stroke-linecap="butt"/>
   <polyline stroke-linejoin="miter" points="223.896,280.227 223.896,278.603" stroke="#262626" fill="none" stroke-width="0.5" stroke-linecap="butt"/>
   <polyline stroke-linejoin="miter" points="223.896,23.6146 223.896,25.239" stroke="#262626" fill="none" stroke-width="0.5" stroke-linecap="butt"/>
   <polyline stroke-linejoin="miter" points="230.202,280.227 230.202,278.603" stroke="#262626" fill="none" stroke-width="0.5" stroke-linecap="butt"/>
   <polyline stroke-linejoin="miter" points="230.202,23.6146 230.202,25.239" stroke="#262626" fill="none" stroke-width="0.5" stroke-linecap="butt"/>
   <polyline stroke-linejoin="miter" points="235.355,280.227 235.355,278.603" stroke="#262626" fill="none" stroke-width="0.5" stroke-linecap="butt"/>
   <polyline stroke-linejoin="miter" points="235.355,23.6146 235.355,25.239" stroke="#262626" fill="none" stroke-width="0.5" stroke-linecap="butt"/>
   <polyline stroke-linejoin="miter" points="239.711,280.227 239.711,278.603" stroke="#262626" fill="none" stroke-width="0.5" stroke-linecap="butt"/>
   <polyline stroke-linejoin="miter" points="239.711,23.6146 239.711,25.239" stroke="#262626" fill="none" stroke-width="0.5" stroke-linecap="butt"/>
   <polyline stroke-linejoin="miter" points="243.485,280.227 243.485,278.603" stroke="#262626" fill="none" stroke-width="0.5" stroke-linecap="butt"/>
   <polyline stroke-linejoin="miter" points="243.485,23.6146 243.485,25.239" stroke="#262626" fill="none" stroke-width="0.5" stroke-linecap="butt"/>
   <polyline stroke-linejoin="miter" points="246.813,280.227 246.813,278.603" stroke="#262626" fill="none" stroke-width="0.5" stroke-linecap="butt"/>
   <polyline stroke-linejoin="miter" points="246.813,23.6146 246.813,25.239" stroke="#262626" fill="none" stroke-width="0.5" stroke-linecap="butt"/>
   <polyline stroke-linejoin="miter" points="269.379,280.227 269.379,278.603" stroke="#262626" fill="none" stroke-width="0.5" stroke-linecap="butt"/>
   <polyline stroke-linejoin="miter" points="269.379,23.6146 269.379,25.239" stroke="#262626" fill="none" stroke-width="0.5" stroke-linecap="butt"/>
   <polyline stroke-linejoin="miter" points="280.838,280.227 280.838,278.603" stroke="#262626" fill="none" stroke-width="0.5" stroke-linecap="butt"/>
   <polyline stroke-linejoin="miter" points="280.838,23.6146 280.838,25.239" stroke="#262626" fill="none" stroke-width="0.5" stroke-linecap="butt"/>
   <polyline stroke-linejoin="miter" points="288.968,280.227 288.968,278.603" stroke="#262626" fill="none" stroke-width="0.5" stroke-linecap="butt"/>
   <polyline stroke-linejoin="miter" points="288.968,23.6146 288.968,25.239" stroke="#262626" fill="none" stroke-width="0.5" stroke-linecap="butt"/>
   <polyline stroke-linejoin="miter" points="295.274,280.227 295.274,278.603" stroke="#262626" fill="none" stroke-width="0.5" stroke-linecap="butt"/>
   <polyline stroke-linejoin="miter" points="295.274,23.6146 295.274,25.239" stroke="#262626" fill="none" stroke-width="0.5" stroke-linecap="butt"/>
   <polyline stroke-linejoin="miter" points="300.426,280.227 300.426,278.603" stroke="#262626" fill="none" stroke-width="0.5" stroke-linecap="butt"/>
   <polyline stroke-linejoin="miter" points="300.426,23.6146 300.426,25.239" stroke="#262626" fill="none" stroke-width="0.5" stroke-linecap="butt"/>
   <polyline stroke-linejoin="miter" points="304.782,280.227 304.782,278.603" stroke="#262626" fill="none" stroke-width="0.5" stroke-linecap="butt"/>
   <polyline stroke-linejoin="miter" points="304.782,23.6146 304.782,25.239" stroke="#262626" fill="none" stroke-width="0.5" stroke-linecap="butt"/>
   <polyline stroke-linejoin="miter" points="308.556,280.227 308.556,278.603" stroke="#262626" fill="none" stroke-width="0.5" stroke-linecap="butt"/>
   <polyline stroke-linejoin="miter" points="308.556,23.6146 308.556,25.239" stroke="#262626" fill="none" stroke-width="0.5" stroke-linecap="butt"/>
   <polyline stroke-linejoin="miter" points="311.885,280.227 311.885,278.603" stroke="#262626" fill="none" stroke-width="0.5" stroke-linecap="butt"/>
   <polyline stroke-linejoin="miter" points="311.885,23.6146 311.885,25.239" stroke="#262626" fill="none" stroke-width="0.5" stroke-linecap="butt"/>
   <polyline stroke-linejoin="miter" points="334.451,280.227 334.451,278.603" stroke="#262626" fill="none" stroke-width="0.5" stroke-linecap="butt"/>
   <polyline stroke-linejoin="miter" points="334.451,23.6146 334.451,25.239" stroke="#262626" fill="none" stroke-width="0.5" stroke-linecap="butt"/>
   <polyline stroke-linejoin="miter" points="345.909,280.227 345.909,278.603" stroke="#262626" fill="none" stroke-width="0.5" stroke-linecap="butt"/>
   <polyline stroke-linejoin="miter" points="345.909,23.6146 345.909,25.239" stroke="#262626" fill="none" stroke-width="0.5" stroke-linecap="butt"/>
   <polyline stroke-linejoin="miter" points="354.039,280.227 354.039,278.603" stroke="#262626" fill="none" stroke-width="0.5" stroke-linecap="butt"/>
   <polyline stroke-linejoin="miter" points="354.039,23.6146 354.039,25.239" stroke="#262626" fill="none" stroke-width="0.5" stroke-linecap="butt"/>
   <polyline stroke-linejoin="miter" points="360.345,280.227 360.345,278.603" stroke="#262626" fill="none" stroke-width="0.5" stroke-linecap="butt"/>
   <polyline stroke-linejoin="miter" points="360.345,23.6146 360.345,25.239" stroke="#262626" fill="none" stroke-width="0.5" stroke-linecap="butt"/>
   <polyline stroke-linejoin="miter" points="365.498,280.227 365.498,278.603" stroke="#262626" fill="none" stroke-width="0.5" stroke-linecap="butt"/>
   <polyline stroke-linejoin="miter" points="365.498,23.6146 365.498,25.239" stroke="#262626" fill="none" stroke-width="0.5" stroke-linecap="butt"/>
   <polyline stroke-linejoin="miter" points="369.854,280.227 369.854,278.603" stroke="#262626" fill="none" stroke-width="0.5" stroke-linecap="butt"/>
   <polyline stroke-linejoin="miter" points="369.854,23.6146 369.854,25.239" stroke="#262626" fill="none" stroke-width="0.5" stroke-linecap="butt"/>
   <polyline stroke-linejoin="miter" points="373.628,280.227 373.628,278.603" stroke="#262626" fill="none" stroke-width="0.5" stroke-linecap="butt"/>
   <polyline stroke-linejoin="miter" points="373.628,23.6146 373.628,25.239" stroke="#262626" fill="none" stroke-width="0.5" stroke-linecap="butt"/>
   <polyline stroke-linejoin="miter" points="376.956,280.227 376.956,278.603" stroke="#262626" fill="none" stroke-width="0.5" stroke-linecap="butt"/>
   <polyline stroke-linejoin="miter" points="376.956,23.6146 376.956,25.239" stroke="#262626" fill="none" stroke-width="0.5" stroke-linecap="butt"/>
   <polyline stroke-linejoin="miter" points="54.5761,280.227 54.5761,276.979" stroke="#262626" fill="none" stroke-width="0.5" stroke-linecap="butt"/>
   <polyline stroke-linejoin="miter" points="54.5761,23.6146 54.5761,26.8633" stroke="#262626" fill="none" stroke-width="0.5" stroke-linecap="butt"/>
   <polyline stroke-linejoin="miter" points="119.648,280.227 119.648,276.979" stroke="#262626" fill="none" stroke-width="0.5" stroke-linecap="butt"/>
   <polyline stroke-linejoin="miter" points="119.648,23.6146 119.648,26.8633" stroke="#262626" fill="none" stroke-width="0.5" stroke-linecap="butt"/>
   <polyline stroke-linejoin="miter" points="184.719,280.227 184.719,276.979" stroke="#262626" fill="none" stroke-width="0.5" stroke-linecap="butt"/>
   <polyline stroke-linejoin="miter" points="184.719,23.6146 184.719,26.8633" stroke="#262626" fill="none" stroke-width="0.5" stroke-linecap="butt"/>
   <polyline stroke-linejoin="miter" points="249.791,280.227 249.791,276.979" stroke="#262626" fill="none" stroke-width="0.5" stroke-linecap="butt"/>
   <polyline stroke-linejoin="miter" points="249.791,23.6146 249.791,26.8633" stroke="#262626" fill="none" stroke-width="0.5" stroke-linecap="butt"/>
   <polyline stroke-linejoin="miter" points="314.862,280.227 314.862,276.979" stroke="#262626" fill="none" stroke-width="0.5" stroke-linecap="butt"/>
   <polyline stroke-linejoin="miter" points="314.862,23.6146 314.862,26.8633" stroke="#262626" fill="none" stroke-width="0.5" stroke-linecap="butt"/>
   <polyline stroke-linejoin="miter" points="379.934,280.227 379.934,276.979" stroke="#262626" fill="none" stroke-width="0.5" stroke-linecap="butt"/>
   <polyline stroke-linejoin="miter" points="379.934,23.6146 379.934,26.8633" stroke="#262626" fill="none" stroke-width="0.5" stroke-linecap="butt"/>
   <g font-style="normal" font-weight="normal" font-family="FreeSans" font-size="10" xml:space="preserve" transform="translate(46.5761,297.716) rotate(-0,8,-10)">
    <text x="0 6 " y="-0" fill="rgb(38,38,38)">10</text>
    <text x="12 " y="-4" font-size="7" fill="rgb(38,38,38)">2</text>
   </g>
   <g font-style="normal" font-weight="normal" font-family="FreeSans" font-size="10" xml:space="preserve" transform="translate(111.648,297.716) rotate(-0,8,-10)">
    <text x="0 6 " y="-0" fill="rgb(38,38,38)">10</text>
    <text x="12 " y="-4" font-size="7" fill="rgb(38,38,38)">3</text>
   </g>
   <g font-style="normal" font-weight="normal" font-family="FreeSans" font-size="10" xml:space="preserve" transform="translate(176.719,297.716) rotate(-0,8,-10)">
    <text x="0 6 " y="-0" fill="rgb(38,38,38)">10</text>
    <text x="12 " y="-4" font-size="7" fill="rgb(38,38,38)">4</text>
   </g>
   <g font-style="normal" font-weight="normal" font-family="FreeSans" font-size="10" xml:space="preserve" transform="translate(241.791,297.716) rotate(-0,8,-10)">
    <text x="0 6 " y="-0" fill="rgb(38,38,38)">10</text>
    <text x="12 " y="-4" font-size="7" fill="rgb(38,38,38)">5</text>
   </g>
   <g font-style="normal" font-weight="normal" font-family="FreeSans" font-size="10" xml:space="preserve" transform="translate(306.862,297.716) rotate(-0,8,-10)">
    <text x="0 6 " y="-0" fill="rgb(38,38,38)">10</text>
    <text x="12 " y="-4" font-size="7" fill="rgb(38,38,38)">6</text>
   </g>
   <g font-style="normal" font-weight="normal" font-family="FreeSans" font-size="10" xml:space="preserve" transform="translate(371.934,297.716) rotate(-0,8,-10)">
    <text x="0 6 " y="-0" fill="rgb(38,38,38)">10</text>
    <text x="12 " y="-4" font-size="7" fill="rgb(38,38,38)">7</text>
   </g>
   <polyline stroke-linejoin="miter" points="54.5761,202.979 56.2047,202.979" stroke="#262626" fill="none" stroke-width="0.5" stroke-linecap="butt"/>
   <polyline stroke-linejoin="miter" points="379.934,202.979 378.305,202.979" stroke="#262626" fill="none" stroke-width="0.5" stroke-linecap="butt"/>
   <polyline stroke-linejoin="miter" points="54.5761,157.792 56.2047,157.792" stroke="#262626" fill="none" stroke-width="0.5" stroke-linecap="butt"/>
   <polyline stroke-linejoin="miter" points="379.934,157.792 378.305,157.792" stroke="#262626" fill="none" stroke-width="0.5" stroke-linecap="butt"/>
   <polyline stroke-linejoin="miter" points="54.5761,125.731 56.2047,125.731" stroke="#262626" fill="none" stroke-width="0.5" stroke-linecap="butt"/>
   <polyline stroke-linejoin="miter" points="379.934,125.731 378.305,125.731" stroke="#262626" fill="none" stroke-width="0.5" stroke-linecap="butt"/>
   <polyline stroke-linejoin="miter" points="54.5761,100.863 56.2047,100.863" stroke="#262626" fill="none" stroke-width="0.5" stroke-linecap="butt"/>
   <polyline stroke-linejoin="miter" points="379.934,100.863 378.305,100.863" stroke="#262626" fill="none" stroke-width="0.5" stroke-linecap="butt"/>
   <polyline stroke-linejoin="miter" points="54.5761,80.5439 56.2047,80.5439" stroke="#262626" fill="none" stroke-width="0.5" stroke-linecap="butt"/>
   <polyline stroke-linejoin="miter" points="379.934,80.5439 378.305,80.5439" stroke="#262626" fill="none" stroke-width="0.5" stroke-linecap="butt"/>
   <polyline stroke-linejoin="miter" points="54.5761,63.3644 56.2047,63.3644" stroke="#262626" fill="none" stroke-width="0.5" stroke-linecap="butt"/>
   <polyline stroke-linejoin="miter" points="379.934,63.3644 378.305,63.3644" stroke="#262626" fill="none" stroke-width="0.5" stroke-linecap="butt"/>
   <polyline stroke-linejoin="miter" points="54.5761,48.483 56.2047,48.483" stroke="#262626" fill="none" stroke-width="0.5" stroke-linecap="butt"/>
   <polyline stroke-linejoin="miter" points="379.934,48.483 378.305,48.483" stroke="#262626" fill="none" stroke-width="0.5" stroke-linecap="butt"/>
   <polyline stroke-linejoin="miter" points="54.5761,35.3566 56.2047,35.3566" stroke="#262626" fill="none" stroke-width="0.5" stroke-linecap="butt"/>
   <polyline stroke-linejoin="miter" points="379.934,35.3566 378.305,35.3566" stroke="#262626" fill="none" stroke-width="0.5" stroke-linecap="butt"/>
   <polyline stroke-linejoin="miter" points="54.5761,280.227 57.8333,280.227" stroke="#262626" fill="none" stroke-width="0.5" stroke-linecap="butt"/>
   <polyline stroke-linejoin="miter" points="379.934,280.227 376.677,280.227" stroke="#262626" fill="none" stroke-width="0.5" stroke-linecap="butt"/>
   <polyline stroke-linejoin="miter" points="54.5761,23.6146 57.8333,23.6146" stroke="#262626" fill="none" stroke-width="0.5" stroke-linecap="butt"/>
   <polyline stroke-linejoin="miter" points="379.934,23.6146 376.677,23.6146" stroke="#262626" fill="none" stroke-width="0.5" stroke-linecap="butt"/>
   <g font-style="normal" font-weight="normal" font-family="FreeSans" font-size="10" xml:space="preserve" transform="translate(33.5706,285.227) rotate(-0,16,-5)">
    <text x="0 6 " y="-0" fill="rgb(38,38,38)">10</text>
    <text x="12 " y="-4" font-size="7" fill="rgb(38,38,38)">3</text>
   </g>
   <g font-style="normal" font-weight="normal" font-family="FreeSans" font-size="10" xml:space="preserve" transform="translate(33.5706,28.6147) rotate(-0,16,-5)">
    <text x="0 6 " y="-0" fill="rgb(38,38,38)">10</text>
    <text x="12 " y="-4" font-size="7" fill="rgb(38,38,38)">4</text>
   </g>
   <polyline stroke-linejoin="miter" points="54.5761,280.227 379.934,280.227" stroke="#262626" fill="none" stroke-width="0.5" stroke-linecap="square" stroke-dasharray="16,0"/>
   <polyline stroke-linejoin="miter" points="54.5761,23.6146 379.934,23.6146" stroke="#262626" fill="none" stroke-width="0.5" stroke-linecap="square" stroke-dasharray="16,0"/>
   <polyline stroke-linejoin="miter" points="54.5761,280.227 54.5761,23.6146" stroke="#262626" fill="none" stroke-width="0.5" stroke-linecap="square" stroke-dasharray="16,0"/>
   <polyline stroke-linejoin="miter" points="379.934,280.227 379.934,23.6146" stroke="#262626" fill="none" stroke-width="0.5" stroke-linecap="square" stroke-dasharray="16,0"/>
   <g font-style="normal" font-weight="normal" font-family="'Noto Sans'" font-size="11" xml:space="preserve" transform="translate(141.255,314.716) rotate(-0,76,-12)">
    <text x="0 8 15 26 33 40 45 48 55 59 62 68 75 81 87 90 93 100 106 113 118 122 129 136 140 148 " y="-3" fill="rgb(38,38,38)">Number of keys inserted(N)</text>
   </g>
   <g font-style="normal" font-weight="normal" font-family="'Noto Sans'" font-size="11" xml:space="preserve" transform="translate(-9.9294,151.921) rotate(-90,38.5,0)">
    <text x="0 3 10 16 20 25 32 38 42 45 52 59 65 69 " y="-0" fill="rgb(38,38,38)">Instructions/N</text>
   </g>
   <g font-style="normal" font-weight="normal" font-family="'Noto Sans'" font-size="11" xml:space="preserve" transform="translate(100.255,13.6147) rotate(-0,117,0)">
    <text x="0 3 10 16 20 25 32 38 42 45 52 59 65 68 75 82 87 98 105 108 111 117 124 131 134 138 145 148 155 162 173 180 187 192 195 202 206 209 215 222 228 " y="-3" fill="rgb(0,0,0)">Instructions normalised to number of keys</text>
   </g>
   <polyline stroke-linejoin="round" points="54.5761,194.862 74.1646,195.377 100.059,192.266 119.648,188.556 139.236,184.188 165.131,178.153 184.719,173.886 204.308,169.129 230.202,163.677 249.791,159.443 269.379,155.78 295.274,150.904 314.862,147.334 334.451,143.678 360.345,139.275" stroke="#0071bc" fill="none" stroke-width="0.5" stroke-linecap="butt"/>
   <polyline stroke-linejoin="round" points="54.5761,213.772 74.1646,218.506 100.059,218.786 119.648,217.345 139.236,215.311 165.131,212.068 184.719,209.561 204.308,207.013 230.202,203.738 249.791,201.225 269.379,198.799 295.274,195.675 314.862,193.371 334.451,191.095 360.345,188.167" stroke="#d85218" fill="none" stroke-width="0.5" stroke-linecap="butt"/>
   <polyline stroke-linejoin="round" points="54.5761,187.736 74.1646,187.283 100.059,185.607 119.648,182.319 139.236,177.481 165.131,173.271 184.719,169.43 204.308,165.281 230.202,160.231 249.791,157.501 269.379,153.748 295.274,150.285 314.862,146.215 334.451,143.119 360.345,138.816" stroke="#ecb01f" fill="none" stroke-width="0.5" stroke-linecap="butt"/>
   <polyline stroke-linejoin="round" points="54.5761,132.8 74.1646,122.061 100.059,91.5572 119.648,77.2927 139.236,71.3228 165.131,63.1849 184.719,60.0915 204.308,56.6329 230.202,52.0957 249.791,49.6647 269.379,47.3635 295.274,43.3006 314.862,40.697 334.451,38.0703 360.345,34.8372" stroke="#7d2e8d" fill="none" stroke-width="0.5" stroke-linecap="butt"/>
   <polyline stroke-linejoin="round" points="54.5761,199.114 74.1646,200.04 100.059,195.947 119.648,191.411 139.236,186.435 165.131,179.824 184.719,174.992 204.308,170.194 230.202,164.15 249.791,159.784 269.379,155.563 295.274,150.199 314.862,146.326 334.451,142.575 360.345,137.796" stroke="#76ab2f" fill="none" stroke-width="0.5" stroke-linecap="butt"/>
   <polyline stroke-linejoin="round" points="54.5761,211.314 74.1646,214.94 100.059,215.557 119.648,213.68 139.236,211.616 165.131,207.791 184.719,204.869 204.308,201.726 230.202,197.867 249.791,194.962 269.379,192.171 295.274,188.386 314.862,185.452 334.451,182.676 360.345,179.159" stroke="#4cbded" fill="none" stroke-width="0.5" stroke-linecap="butt"/>
  </g>
  <clipPath id="cp00419314">
   <polygon points="0,314 419,314 419,0 0,0"/>
  </clipPath>
  <g clip-path="url(#cp00419314)">
   <polyline stroke-linejoin="round" points="288.918,197.204 308.927,197.204" stroke="#0071bc" fill="none" stroke-width="0.5" stroke-linecap="butt"/>
   <g font-style="normal" font-weight="normal" font-family="'Noto Sans'" font-size="9" xml:space="preserve" transform="translate(312.928,201.204) rotate(-0,-0,-4)">
    <text x="0 5 10 15 19 24 " y="-0" fill="rgb(0,0,0)">bsTree</text>
   </g>
   <polyline stroke-linejoin="round" points="288.918,209.61 308.927,209.61" stroke="#d85218" fill="none" stroke-width="0.5" stroke-linecap="butt"/>
   <g font-style="normal" font-weight="normal" font-family="'Noto Sans'" font-size="9" xml:space="preserve" transform="translate(312.928,213.61) rotate(-0,-0,-4)">
    <text x="0 4 9 14 19 22 27 31 36 41 45 50 " y="-0" fill="rgb(0,0,0)">redblackTree</text>
   </g>
   <polyline stroke-linejoin="round" points="288.918,222.813 308.927,222.813" stroke="#ecb01f" fill="none" stroke-width="0.5" stroke-linecap="butt"/>
   <g font-style="normal" font-weight="normal" font-family="'Noto Sans'" font-size="9" xml:space="preserve" transform="translate(312.928,227.813) rotate(-0,-0,-5)">
    <text x="0 5 10 15 19 24 " y="-2" fill="rgb(0,0,0)">sgTree</text>
   </g>
   <polyline stroke-linejoin="round" points="288.918,236.815 308.927,236.815" stroke="#7d2e8d" fill="none" stroke-width="0.5" stroke-linecap="butt"/>
   <g font-style="normal" font-weight="normal" font-family="'Noto Sans'" font-size="9" xml:space="preserve" transform="translate(312.928,241.815) rotate(-0,-0,-5)">
    <text x="0 5 10 13 18 23 26 31 " y="-2" fill="rgb(0,0,0)">skipList</text>
   </g>
   <polyline stroke-linejoin="round" points="288.918,250.817 308.927,250.817" stroke="#76ab2f" fill="none" stroke-width="0.5" stroke-linecap="butt"/>
   <g font-style="normal" font-weight="normal" font-family="'Noto Sans'" font-size="9" xml:space="preserve" transform="translate(312.928,255.817) rotate(-0,-0,-5)">
    <text x="0 5 10 13 18 23 28 32 37 " y="-2" fill="rgb(0,0,0)">splayTree</text>
   </g>
   <polyline stroke-linejoin="round" points="288.918,264.02 308.927,264.02" stroke="#4cbded" fill="none" stroke-width="0.5" stroke-linecap="butt"/>
   <g font-style="normal" font-weight="normal" font-family="'Noto Sans'" font-size="9" xml:space="preserve" transform="translate(312.928,268.02) rotate(-0,-0,-4)">
    <text x="0 5 12 17 21 26 " y="-0" fill="rgb(0,0,0)">swTree</text>
   </g>
  </g>
 </g>
</svg>
